{
	"nodes":[{
		"name":"Camera",
		"translation":[-2270.006591796875,
		268.489990234375,
		618.9505004882813],
		"rotation":[0.04926175996661186,
		0.6024529337882996,
		0.027644600719213487,
		-0.7961529493331909],
		"scale":[1.0,
		1.0,
		1.0],
		"camera":0
	},
	{
		"name":"Tube",
		"mesh":0
	},
	{
		"name":"Tube.1",
		"mesh":1
	},
	{
		"name":"Sphere.1",
		"translation":[0.0,
		1.4000470365828875e-14,
		-0.098747119307518],
		"rotation":[0.7071067690849304,
		0.0,
		0.0,
		-0.7071067690849304],
		"scale":[1.0,
		1.0,
		1.0],
		"mesh":2
	},
	{
		"name":"Sphere",
		"translation":[0.0,
		0.0,
		0.0],
		"rotation":[-0.7071067690849304,
		0.0,
		0.0,
		-0.7071067690849304],
		"scale":[1.0,
		1.0,
		1.0],
		"mesh":3
	}],
	"asset":{
		"version":"2.0",
		"generator":"Created using the official Cinema 4D glTF Exporter 1.000x284978"
	},
	"scenes":[{
		"nodes":[0,
		1,
		2,
		3,
		4]
	}],
	"meshes":[{
		"name":"Tube",
		"primitives":[{
			"attributes":{
				"POSITION":1,
				"NORMAL":2,
				"TEXCOORD_0":3
			},
			"indices":0,
			"material":0
		}]
	},
	{
		"name":"Tube.1",
		"primitives":[{
			"attributes":{
				"POSITION":5,
				"NORMAL":6,
				"TEXCOORD_0":7
			},
			"indices":4,
			"material":1
		}]
	},
	{
		"name":"Sphere.1",
		"primitives":[{
			"attributes":{
				"POSITION":9,
				"NORMAL":10,
				"TEXCOORD_0":11
			},
			"indices":8,
			"material":0
		}]
	},
	{
		"name":"Sphere",
		"primitives":[{
			"attributes":{
				"POSITION":13,
				"NORMAL":14,
				"TEXCOORD_0":15
			},
			"indices":12,
			"material":0
		}]
	}],
	"cameras":[{
		"type":"perspective",
		"perspective":{
			"znear":0.009999999776482582,
			"zfar":10000000000.0,
			"aspectRatio":1.0571428537368775,
			"yfov":0.2780930697917938
		}
	}],
	"accessors":[{
		"bufferView":0,
		"type":"SCALAR",
		"componentType":5123,
		"count":32400,
		"byteOffset":0,
		"min":[0],
		"max":[5550]
	},
	{
		"bufferView":1,
		"type":"VEC3",
		"componentType":5126,
		"count":5551,
		"byteOffset":0,
		"min":[-144.07972717285157,
		-10.0,
		-144.07972717285157],
		"max":[144.07972717285157,
		10.0,
		144.07972717285157]
	},
	{
		"bufferView":1,
		"type":"VEC3",
		"componentType":5126,
		"count":5551,
		"byteOffset":12,
		"min":[-1.0,
		-0.9998072981834412,
		-1.0],
		"max":[1.0,
		0.9998072981834412,
		1.0]
	},
	{
		"bufferView":1,
		"type":"VEC2",
		"componentType":5126,
		"count":5551,
		"byteOffset":24,
		"min":[0.0,
		0.0],
		"max":[1.0,
		1.0]
	},
	{
		"bufferView":2,
		"type":"SCALAR",
		"componentType":5123,
		"count":32400,
		"byteOffset":0,
		"min":[0],
		"max":[5550]
	},
	{
		"bufferView":3,
		"type":"VEC3",
		"componentType":5126,
		"count":5551,
		"byteOffset":0,
		"min":[-147.0,
		-5.0,
		-147.0],
		"max":[147.0,
		5.0,
		147.0]
	},
	{
		"bufferView":3,
		"type":"VEC3",
		"componentType":5126,
		"count":5551,
		"byteOffset":12,
		"min":[-1.0,
		-0.9998072385787964,
		-1.0],
		"max":[1.0,
		0.9998072385787964,
		1.0]
	},
	{
		"bufferView":3,
		"type":"VEC2",
		"componentType":5126,
		"count":5551,
		"byteOffset":24,
		"min":[0.0,
		0.0],
		"max":[1.0,
		1.0]
	},
	{
		"bufferView":4,
		"type":"SCALAR",
		"componentType":5123,
		"count":5220,
		"byteOffset":0,
		"min":[0],
		"max":[974]
	},
	{
		"bufferView":5,
		"type":"VEC3",
		"componentType":5126,
		"count":975,
		"byteOffset":0,
		"min":[-100.0,
		-2.220446049250313e-14,
		-100.0],
		"max":[100.0,
		100.0,
		100.0]
	},
	{
		"bufferView":5,
		"type":"VEC3",
		"componentType":5126,
		"count":975,
		"byteOffset":12,
		"min":[-0.9984776377677918,
		0.05232764035463333,
		-0.9984776377677918],
		"max":[0.9984776377677918,
		0.9999999403953552,
		0.9984776377677918]
	},
	{
		"bufferView":5,
		"type":"VEC2",
		"componentType":5126,
		"count":975,
		"byteOffset":24,
		"min":[0.0,
		0.0],
		"max":[1.0,
		0.5]
	},
	{
		"bufferView":6,
		"type":"SCALAR",
		"componentType":5123,
		"count":5220,
		"byteOffset":0,
		"min":[0],
		"max":[974]
	},
	{
		"bufferView":7,
		"type":"VEC3",
		"componentType":5126,
		"count":975,
		"byteOffset":0,
		"min":[-100.0,
		-2.220446049250313e-14,
		-100.0],
		"max":[100.0,
		100.0,
		100.0]
	},
	{
		"bufferView":7,
		"type":"VEC3",
		"componentType":5126,
		"count":975,
		"byteOffset":12,
		"min":[-0.9984776377677918,
		0.05232764035463333,
		-0.9984776377677918],
		"max":[0.9984776377677918,
		0.9999999403953552,
		0.9984776377677918]
	},
	{
		"bufferView":7,
		"type":"VEC2",
		"componentType":5126,
		"count":975,
		"byteOffset":24,
		"min":[0.0,
		0.0],
		"max":[1.0,
		0.5]
	}],
	"bufferViews":[{
		"buffer":0,
		"byteOffset":0,
		"byteLength":64800,
		"target":34963
	},
	{
		"buffer":0,
		"byteOffset":64800,
		"byteLength":177632,
		"target":34962,
		"byteStride":32
	},
	{
		"buffer":1,
		"byteOffset":0,
		"byteLength":64800,
		"target":34963
	},
	{
		"buffer":1,
		"byteOffset":64800,
		"byteLength":177632,
		"target":34962,
		"byteStride":32
	},
	{
		"buffer":2,
		"byteOffset":0,
		"byteLength":10440,
		"target":34963
	},
	{
		"buffer":2,
		"byteOffset":10440,
		"byteLength":31200,
		"target":34962,
		"byteStride":32
	},
	{
		"buffer":3,
		"byteOffset":0,
		"byteLength":10440,
		"target":34963
	},
	{
		"buffer":3,
		"byteOffset":10440,
		"byteLength":31200,
		"target":34962,
		"byteStride":32
	}],
	"buffers":[{
		"uri":"data:application/octet-stream;base64,",
		"byteLength":242432
	},
	{
		"uri":"data:application/octet-stream;base64,",
		"byteLength":242432
	},
	{
		"uri":"data:application/octet-stream;base64,",
		"byteLength":41640
	},
	{
		"uri":"data:application/octet-stream;base64,",
		"byteLength":41640
	}],
	"materials":[{
		"pbrMetallicRoughness":{
			"baseColorFactor":[0.093333333333333,
			0.8,
			0.0,
			1.0],
			"metallicFactor":0.0,
			"roughnessFactor":0.5
		},
		"emissiveFactor":[0.0,
		0.0,
		0.0],
		"alphaMode":"OPAQUE",
		"doubleSided":false,
		"name":"Mat"
	},
	{
		"pbrMetallicRoughness":{
			"baseColorFactor":[0.7760000000000015,
			0.8,
			0.3200000000000001,
			1.0],
			"metallicFactor":0.0,
			"roughnessFactor":0.5
		},
		"emissiveFactor":[1.0,
		1.0,
		1.0],
		"alphaMode":"OPAQUE",
		"doubleSided":false,
		"name":"Mat.1"
	}]
}